# xmcd
#
# Track frame offsets:
#	150
#	17385
#	33119
#	44348
#	63970
#	77619
#	90334
#	109488
#	124658
#	137398
#	169498
#
# Disc length: 2479 seconds
#
# Revision: 0
# Processed by: cddbd v1.5.2PL0 Copyright (c) Steve Scherf et al.
# Submitted via: dBpowerAMP V4.0
#
DISCID=7f09ad0b
DTITLE=Pender - Hey Man Don't Bring yourself Down
DYEAR=2007
DGENRE=Roots
TTITLE0=Laundry in London
TTITLE1=Spirit of Sam
TTITLE2=Albert
TTITLE3=Suitcase
TTITLE4=Gold Stone
TTITLE5=Take
TTITLE6=Politics
TTITLE7=Hey Man, San Fran 
TTITLE8=Fragile
TTITLE9=Airport
TTITLE10=Hold Me
EXTD=
EXTT0=
EXTT1=
EXTT2=
EXTT3=
EXTT4=
EXTT5=
EXTT6=
EXTT7=
EXTT8=
EXTT9=
EXTT10=
PLAYORDER=
